<svg version="1.0" xmlns="http://www.w3.org/2000/svg" width="920pt" height="920pt" viewBox="0 0 920 920"><g transform="translate(0.000000,920.000000) scale(0.100000,-0.100000)" fill="#000" stroke="none"><path d="M3755 8013c-552-65-968-233-1395-563-114-88-413-384-408-404 2-8 149-150 328-316l324-3e2 81 79c297 291 575 455 890 523 118 25 384 35 525 19 384-45 649-217 746-486 59-161 54-335-11-474-86-180-219-316-620-631-379-297-558-475-690-685-131-210-196-481-171-718l8-67h519 519v109c0 214 59 381 198 564 109 143 234 257 552 502 291 225 342 267 464 385 315 305 435 597 407 991-26 356-128 619-337 869-276 328-752 541-1343 6e2-95 9-516 12-586 3z"/><path d="M6951 3993C6612 3108 5490 161 5490 155c0-3 125-5 279-5h278l88 248c48 136 115 324 150 417 34 94 75 207 91 253l29 82 873-2 874-3 176-497 177-498h273c184 0 272 3 272 11 0 5-176 472-391 1037-214 565-546 1438-737 1939l-347 913h-301-301l-22-57zm632-1323c168-454 326-879 351-945 25-65 46-123 46-127s-318-8-706-8c-668 0-706 1-702 18 4 13 643 1748 690 1871 4 13 10 22 12 20s141-375 309-829z"/><path d="M3745 3276c-262-51-452-216-531-461-36-109-44-296-20-411 52-238 214-423 436-498 285-95 609-21 790 182 63 70 136 214 155 307 22 103 19 272-5 374-57 238-230 420-465 489-101 29-260 37-360 18z"/></g></svg>